<!-- Generated by IcoMoon.io -->
<svg version="1.1" xmlns="http://www.w3.org/2000/svg" width="32" height="32" viewBox="0 0 32 32">
<title>close</title>
<path d="M27.313 4.687c-3.024-3.024-7.037-4.687-11.313-4.687s-8.29 1.663-11.313 4.687-4.687 7.037-4.687 11.313 1.663 8.29 4.687 11.313 7.037 4.687 11.313 4.687 8.29-1.663 11.313-4.687 4.687-7.037 4.687-11.313-1.663-8.29-4.687-11.313zM26.027 26.027c-2.68 2.68-6.242 4.155-10.027 4.155s-7.347-1.475-10.027-4.155c-5.529-5.529-5.529-14.525 0-20.054 2.68-2.68 6.242-4.155 10.027-4.155s7.347 1.475 10.027 4.155c5.529 5.529 5.529 14.525 0 20.054z"></path>
<path d="M23.050 8.95c-0.357-0.357-0.929-0.357-1.286 0l-5.764 5.764-5.764-5.764c-0.357-0.357-0.929-0.357-1.286 0s-0.357 0.929 0 1.286l5.764 5.764-5.764 5.764c-0.357 0.357-0.357 0.929 0 1.286 0.175 0.175 0.411 0.269 0.64 0.269s0.465-0.088 0.64-0.269l5.764-5.764 5.764 5.764c0.175 0.175 0.411 0.269 0.64 0.269 0.236 0 0.465-0.088 0.64-0.269 0.357-0.357 0.357-0.929 0-1.286l-5.751-5.764 5.764-5.764c0.357-0.357 0.357-0.929 0-1.286z"></path>
</svg>
