<!-- Generated by IcoMoon.io -->
<svg version="1.1" xmlns="http://www.w3.org/2000/svg" width="32" height="32" viewBox="0 0 32 32">
<title>forward</title>
<path d="M17.25 14.065l-14.056-11.164c-0.682-0.344-1.496-0.306-2.146 0.088-0.653 0.393-1.048 1.093-1.048 1.845v22.335c0 0.75 0.394 1.449 1.048 1.843 0.352 0.213 0.751 0.322 1.156 0.322 0.34 0 0.679-0.078 0.992-0.234l14.056-11.168c0.677-0.636 1.212-1.114 1.212-1.934s-0.455-1.262-1.213-1.933z"></path>
<path d="M30.788 14.065l-14.056-11.164c-0.682-0.344-1.498-0.306-2.148 0.088-0.653 0.393-1.048 1.093-1.048 1.845v22.335c0 0.75 0.394 1.449 1.048 1.843 0.352 0.213 0.751 0.322 1.156 0.322 0.34 0 0.679-0.078 0.992-0.234l14.056-11.168c0.677-0.636 1.212-1.114 1.212-1.934s-0.454-1.262-1.212-1.933z"></path>
</svg>
