<!-- Generated by IcoMoon.io -->
<svg version="1.1" xmlns="http://www.w3.org/2000/svg" width="32" height="32" viewBox="0 0 32 32">
<title>rewind</title>
<path d="M31.036 3.888c-0.578-0.299-1.282-0.248-1.813 0.14l-11.198 8.129v-6.709c0-0.662-0.372-1.258-0.961-1.56-0.58-0.299-1.284-0.248-1.815 0.14l-14.533 10.552c-0.447 0.33-0.716 0.854-0.716 1.415s0.267 1.088 0.716 1.413l14.533 10.554c0.299 0.22 0.662 0.339 1.027 0.339 0.267 0 0.538-0.070 0.788-0.194 0.589-0.302 0.961-0.908 0.961-1.556v-6.72l11.198 8.133c0.302 0.22 0.662 0.339 1.027 0.339 0.264 0 0.536-0.070 0.786-0.194 0.592-0.302 0.964-0.908 0.964-1.556v-21.106c0-0.66-0.372-1.258-0.964-1.56z"></path>
</svg>
