<!-- Generated by IcoMoon.io -->
<svg version="1.1" xmlns="http://www.w3.org/2000/svg" width="32" height="32" viewBox="0 0 32 32">
<title>settings</title>
<path d="M30.362 12.641l-2.246-0.381c-0.234-0.755-0.535-1.484-0.902-2.179l1.324-1.852c0.562-0.789 0.475-1.865-0.214-2.547l-1.992-1.992c-0.374-0.374-0.869-0.582-1.397-0.582-0.414 0-0.809 0.127-1.143 0.368l-1.858 1.324c-0.722-0.381-1.477-0.695-2.259-0.929l-0.374-2.219c-0.16-0.956-0.983-1.651-1.952-1.651h-2.814c-0.969 0-1.791 0.695-1.952 1.651l-0.388 2.273c-0.749 0.234-1.477 0.541-2.173 0.916l-1.838-1.324c-0.334-0.241-0.735-0.368-1.15-0.368-0.528 0-1.029 0.207-1.397 0.582l-1.999 1.992c-0.682 0.682-0.775 1.758-0.214 2.547l1.337 1.878c-0.368 0.702-0.662 1.431-0.889 2.186l-2.219 0.374c-0.956 0.16-1.651 0.983-1.651 1.952v2.814c0 0.969 0.695 1.791 1.651 1.952l2.273 0.388c0.234 0.749 0.541 1.477 0.916 2.173l-1.317 1.832c-0.562 0.789-0.475 1.865 0.214 2.547l1.992 1.992c0.374 0.374 0.869 0.582 1.397 0.582 0.414 0 0.809-0.127 1.143-0.368l1.878-1.337c0.675 0.354 1.384 0.642 2.112 0.869l0.374 2.246c0.16 0.956 0.983 1.651 1.952 1.651h2.821c0.969 0 1.791-0.695 1.952-1.651l0.381-2.246c0.755-0.234 1.484-0.535 2.179-0.902l1.852 1.324c0.334 0.241 0.735 0.368 1.15 0.368v0c0.528 0 1.023-0.207 1.397-0.582l1.992-1.992c0.682-0.682 0.775-1.758 0.214-2.547l-1.324-1.858c0.368-0.702 0.675-1.431 0.902-2.179l2.246-0.374c0.956-0.16 1.651-0.983 1.651-1.952v-2.814c0.013-0.969-0.682-1.791-1.638-1.952zM30.208 17.407c0 0.087-0.060 0.16-0.147 0.174l-2.808 0.468c-0.354 0.060-0.635 0.321-0.722 0.662-0.254 0.983-0.642 1.925-1.163 2.801-0.18 0.308-0.167 0.689 0.040 0.983l1.651 2.326c0.047 0.067 0.040 0.167-0.020 0.227l-1.992 1.992c-0.047 0.047-0.094 0.053-0.127 0.053-0.040 0-0.074-0.013-0.1-0.033l-2.32-1.651c-0.287-0.207-0.675-0.221-0.983-0.040-0.876 0.521-1.818 0.909-2.801 1.163-0.348 0.087-0.608 0.374-0.662 0.722l-0.475 2.808c-0.013 0.087-0.087 0.147-0.174 0.147h-2.814c-0.087 0-0.16-0.060-0.174-0.147l-0.468-2.808c-0.060-0.354-0.321-0.635-0.662-0.722-0.956-0.247-1.878-0.628-2.741-1.123-0.14-0.080-0.301-0.12-0.455-0.12-0.181 0-0.368 0.053-0.521 0.167l-2.34 1.665c-0.033 0.020-0.067 0.033-0.1 0.033-0.027 0-0.080-0.007-0.127-0.053l-1.992-1.992c-0.060-0.060-0.067-0.154-0.020-0.227l1.644-2.306c0.207-0.294 0.221-0.682 0.040-0.989-0.521-0.869-0.923-1.812-1.176-2.794-0.094-0.341-0.374-0.602-0.722-0.662l-2.828-0.481c-0.087-0.013-0.147-0.087-0.147-0.174v-2.814c0-0.087 0.060-0.16 0.147-0.174l2.788-0.468c0.354-0.060 0.642-0.321 0.729-0.668 0.247-0.983 0.628-1.932 1.143-2.808 0.181-0.307 0.16-0.689-0.047-0.976l-1.665-2.34c-0.047-0.067-0.040-0.167 0.020-0.227l1.992-1.992c0.047-0.047 0.094-0.053 0.127-0.053 0.040 0 0.074 0.013 0.1 0.033l2.306 1.644c0.294 0.207 0.682 0.221 0.989 0.040 0.869-0.521 1.812-0.923 2.794-1.176 0.341-0.094 0.602-0.374 0.662-0.722l0.481-2.828c0.013-0.087 0.087-0.147 0.174-0.147h2.814c0.087 0 0.16 0.060 0.174 0.147l0.468 2.788c0.060 0.354 0.321 0.642 0.668 0.729 1.009 0.254 1.972 0.648 2.868 1.176 0.308 0.181 0.689 0.167 0.983-0.040l2.306-1.658c0.033-0.020 0.067-0.033 0.1-0.033 0.027 0 0.080 0.007 0.127 0.053l1.992 1.992c0.060 0.060 0.067 0.154 0.020 0.227l-1.651 2.32c-0.207 0.287-0.221 0.675-0.040 0.983 0.521 0.876 0.909 1.818 1.163 2.801 0.087 0.348 0.374 0.608 0.722 0.662l2.808 0.475c0.087 0.013 0.147 0.087 0.147 0.174v2.814h-0.007z"></path>
<path d="M16.003 9.091c-3.81 0-6.905 3.095-6.905 6.905s3.095 6.905 6.905 6.905 6.905-3.095 6.905-6.905-3.095-6.905-6.905-6.905zM16.003 21.097c-2.814 0-5.1-2.286-5.1-5.1s2.286-5.1 5.1-5.1 5.1 2.286 5.1 5.1-2.286 5.1-5.1 5.1z"></path>
</svg>
